<svg width="94" height="84" viewBox="0 0 94 84" fill="none" xmlns="http://www.w3.org/2000/svg">
<path d="M7.45898 80.9111C9.59601 82 12.395 82 17.9846 82H76.0179C81.6075 82 84.4024 82 86.5394 80.9111C88.421 79.9524 89.9524 78.4186 90.9111 76.537C91.5276 75.3271 91.795 73.9064 91.9111 71.887L77.5835 53.9775C75.651 51.5619 74.6851 50.358 73.4941 49.8662C72.4482 49.4343 71.2857 49.3669 70.1984 49.6807C68.9604 50.0379 67.8667 51.1309 65.6792 53.3184L63.1938 55.8037C61.0454 57.9522 59.971 59.0265 58.7505 59.3866C57.6783 59.703 56.5323 59.6566 55.4931 59.2444C54.315 58.7771 53.3448 57.6128 51.4154 55.2975L38.0596 39.2705C35.9753 36.7694 34.9332 35.5198 33.6821 35.0566C32.5843 34.6502 31.3797 34.6411 30.2764 35.0322C29.0203 35.4775 27.9613 36.713 25.8469 39.1798L25.8399 39.1875L2.00025 67.0004C2.0041 71.9421 2.06686 74.5291 3.08993 76.537C4.04867 78.4186 5.57736 79.9524 7.45898 80.9111Z" fill="#E2E2E2"/>
<path d="M62 32C59.2386 32 57 29.7614 57 27C57 24.2386 59.2386 22 62 22C64.7614 22 67 24.2386 67 27C67 29.7614 64.7614 32 62 32Z" fill="#E2E2E2"/>
<path d="M2.00025 67.0004C2 66.6775 2 66.3445 2 66.001V18.001C2 12.4005 2 9.5981 3.08993 7.45898C4.04867 5.57736 5.57736 4.04867 7.45898 3.08993C9.5981 2 12.4005 2 18.001 2H76.001C81.6015 2 84.4003 2 86.5394 3.08993C88.421 4.04867 89.9524 5.57736 90.9111 7.45898C92 9.59601 92 12.395 92 17.9846V66.0154C92 68.4405 92 70.3395 91.9111 71.887M2.00025 67.0004C2.0041 71.9421 2.06686 74.5291 3.08993 76.537C4.04867 78.4186 5.57736 79.9524 7.45898 80.9111C9.59601 82 12.395 82 17.9846 82H76.0179C81.6075 82 84.4024 82 86.5394 80.9111C88.421 79.9524 89.9524 78.4186 90.9111 76.537C91.5276 75.3271 91.795 73.9064 91.9111 71.887M2.00025 67.0004L25.8399 39.1875L25.8469 39.1798C27.9613 36.713 29.0203 35.4775 30.2764 35.0322C31.3797 34.6411 32.5843 34.6502 33.6821 35.0566C34.9332 35.5198 35.9753 36.7694 38.0596 39.2705L51.4154 55.2975C53.3448 57.6128 54.315 58.7771 55.4931 59.2444C56.5323 59.6566 57.6783 59.7031 58.7505 59.3866C59.971 59.0265 61.0454 57.9522 63.1938 55.8037L65.6792 53.3184C67.8667 51.1309 68.9604 50.0379 70.1984 49.6807C71.2857 49.3669 72.4482 49.4343 73.4941 49.8662C74.6851 50.358 75.651 51.5619 77.5835 53.9775L91.9111 71.887M91.9111 71.887L91.9999 71.998M62 32C59.2386 32 57 29.7614 57 27C57 24.2386 59.2386 22 62 22C64.7614 22 67 24.2386 67 27C67 29.7614 64.7614 32 62 32Z" stroke="#E2E2E2" stroke-width="3" stroke-linecap="round" stroke-linejoin="round"/>
</svg>
