<svg width="24" height="24" viewBox="0 0 24 24" fill="none" xmlns="http://www.w3.org/2000/svg">
<path d="M4.00331 4L20.0033 20M16.5033 16.7559C15.1507 17.4845 13.6219 17.9999 12.0033 17.9999C8.47266 17.9999 5.36966 15.5478 3.59022 13.7788C3.12052 13.3119 2.8857 13.0784 2.73622 12.6201C2.62961 12.2933 2.62958 11.7066 2.73622 11.3797C2.88575 10.9215 3.12105 10.6875 3.59169 10.2197C4.48857 9.32821 5.72143 8.26359 7.17561 7.42676M19.5033 14.6335C19.8364 14.3405 20.1414 14.0523 20.4151 13.7803L20.418 13.7772C20.8866 13.3114 21.1216 13.0779 21.2708 12.6206C21.3775 12.2938 21.3772 11.7068 21.2706 11.38C21.1212 10.9219 20.8861 10.6877 20.4167 10.2211C18.6373 8.45208 15.534 6 12.0033 6C11.6658 6 11.3322 6.02241 11.0033 6.06448M13.3262 13.5C12.9737 13.8112 12.5105 14 12.0033 14C10.8987 14 10.0033 13.1046 10.0033 12C10.0033 11.4605 10.2169 10.9711 10.5642 10.6113" stroke="#999CA0" stroke-width="2" stroke-linecap="round" stroke-linejoin="round"/>
</svg>
