<?xml version="1.0" ?><svg viewBox="0 0 64 64" xmlns="http://www.w3.org/2000/svg"><defs><style>.cls-1{fill:#d2ddff;}.cls-2{fill:#4c241d;}.cls-3{fill:none;}.cls-3,.cls-4,.cls-5,.cls-6,.cls-7{stroke:#4c241d;stroke-linecap:round;stroke-linejoin:round;stroke-width:2px;}.cls-4{fill:#e2e2e2;}.cls-5{fill:#ffce56;}.cls-6{fill:#fff;}.cls-7{fill:#e66353;}</style></defs><g id="negative-envelope"><circle class="cls-1" cx="37.5" cy="24.5" r="21.5"/><circle class="cls-2" cx="22" cy="10" r="1"/><circle class="cls-2" cx="53" cy="6" r="1"/><line class="cls-3" x1="55.59" x2="58.41" y1="15.59" y2="18.41"/><line class="cls-3" x1="58.41" x2="55.59" y1="15.59" y2="18.41"/><path class="cls-4" d="M34.37,16a3.94,3.94,0,0,0-4.9-.1L8,33,32,50,56,33Z"/><rect class="cls-5" height="28" width="38" x="13" y="19"/><polygon class="cls-6" points="31 49 56 33 56 60 31 49"/><polygon class="cls-6" points="31 49 8 33 8 60 31 49"/><circle class="cls-3" cx="46.5" cy="11.5" r="2.5"/><path class="cls-6" d="M56,60,34.59,44.88a4.63,4.63,0,0,0-5.33,0L8,60Z"/><polygon class="cls-7" points="39.33 27 36.5 24.17 31.75 28.92 27 24.17 24.17 27 28.92 31.75 24.17 36.5 27 39.33 31.75 34.58 36.5 39.33 39.33 36.5 34.58 31.75 39.33 27"/></g></svg>