<svg width="22" height="14" viewBox="0 0 22 14" fill="none" xmlns="http://www.w3.org/2000/svg">
<path d="M2.59022 8.77881C4.36965 10.5478 7.47295 12.9999 11.0036 12.9999C14.5343 12.9999 17.637 10.5478 19.4164 8.77881C19.8857 8.31226 20.1211 8.07819 20.2706 7.62012C20.3772 7.29328 20.3772 6.70674 20.2706 6.3799C20.1211 5.92181 19.8857 5.6877 19.4164 5.22111C17.637 3.45208 14.5343 1 11.0036 1C7.47295 1 4.36965 3.45208 2.59022 5.22111C2.12056 5.68802 1.8857 5.92165 1.73621 6.3799C1.6296 6.70673 1.6296 7.29328 1.73621 7.62012C1.8857 8.07837 2.12055 8.31189 2.59022 8.77881Z" stroke="#999CA0" stroke-width="2" stroke-linecap="round" stroke-linejoin="round"/>
<path d="M9.00342 7C9.00342 8.10457 9.89885 9 11.0034 9C12.108 9 13.0034 8.10457 13.0034 7C13.0034 5.89543 12.108 5 11.0034 5C9.89885 5 9.00342 5.89543 9.00342 7Z" stroke="#999CA0" stroke-width="2" stroke-linecap="round" stroke-linejoin="round"/>
</svg>
