<svg width="86" height="86" viewBox="0 0 86 86" fill="none" xmlns="http://www.w3.org/2000/svg">
<circle cx="43.1953" cy="43" r="43" fill="#D9D9D9"/>
<path d="M12.845 48.536C13.5217 44.4799 14.8236 40.3863 16.5332 36.812C17.966 33.5053 20.0614 30.7862 23.4481 29.3699C26.0946 28.1653 29.3821 27.8844 31.9487 29.5289C34.341 31.0584 35.0821 33.6491 35.1639 36.4048C35.3014 38.6971 34.1521 43.2416 36.8678 44.5844C39.6177 45.7997 43.6512 44.0099 45.856 42.4136C48.3374 40.5497 50.3053 37.7965 50.9171 34.7482C51.7681 30.8071 50.5785 26.3193 52.2288 22.4558C53.8108 18.8473 57.6167 15.3563 61.797 15.3145C65.3521 15.3102 68.2613 18.4818 69.8142 21.3584C71.2739 24.0732 72.2142 27.1957 73.1887 30.1906C76.5823 40.7366 67.6902 51.4763 56.6515 50.8422C55.0527 50.6872 53.4415 50.3238 51.8552 50.3772C47.6283 50.3382 43.8623 52.4046 40.8991 55.3013C38.1785 58.0579 36.864 61.9431 34.0159 64.6656C30.5334 67.9698 24.4068 70.4289 19.7781 68.5736C14.1632 66.3173 12.4659 59.6431 12.3491 54.2125C12.3641 52.3712 12.5408 50.4365 12.845 48.536Z" fill="black"/>
</svg>
