<svg width="16" height="16" viewBox="0 0 16 16" fill="none" xmlns="http://www.w3.org/2000/svg">
<circle cx="8.03027" cy="8" r="6.625" fill="#E2E2E2"/>
<path d="M3.35398 8.85292C3.45825 8.228 3.65883 7.5973 3.92222 7.04661C4.14297 6.53714 4.46582 6.11821 4.98761 5.90001C5.39535 5.71442 5.90186 5.67113 6.29729 5.9245C6.66587 6.16016 6.78005 6.5593 6.79265 6.98387C6.81385 7.33704 6.63676 8.03722 7.05518 8.2441C7.47886 8.43133 8.1003 8.15559 8.43998 7.90965C8.82229 7.62248 9.12549 7.19829 9.21975 6.72863C9.35086 6.12144 9.16758 5.43 9.42185 4.83475C9.66558 4.27879 10.252 3.74093 10.896 3.73449C11.4437 3.73384 11.892 4.22249 12.1312 4.66568C12.3561 5.08395 12.501 5.56503 12.6511 6.02646C13.174 7.65128 11.804 9.30594 10.1032 9.20825C9.85692 9.18436 9.60867 9.12838 9.36428 9.1366C8.71304 9.13058 8.13282 9.44896 7.67628 9.89525C7.25711 10.32 7.0546 10.9186 6.61578 11.338C6.07923 11.8471 5.13531 12.226 4.42216 11.9401C3.55708 11.5925 3.29559 10.5642 3.27759 9.7275C3.27989 9.44381 3.30711 9.14573 3.35398 8.85292Z" fill="black"/>
</svg>
